<svg xmlns="http://www.w3.org/2000/svg" viewBox="0 0 64 64">
  <defs>
    <linearGradient id="bg" x1="0" y1="0" x2="1" y2="1">
      <stop offset="0" stop-color="#E8769B"/>
      <stop offset="1" stop-color="#C24E76"/>
    </linearGradient>
  </defs>
  <rect width="64" height="64" rx="14" fill="url(#bg)"/>
  <circle cx="12" cy="12" r="2.4" fill="#FFFFFF" opacity="0.55"/>
  <circle cx="54" cy="10" r="1.8" fill="#FFFFFF" opacity="0.45"/>
  <circle cx="55" cy="55" r="2.2" fill="#FFFFFF" opacity="0.4"/>
  <g transform="rotate(-20 32 52)">
    <rect x="15" y="25" width="34" height="22" rx="4.5" fill="#6FAFE7" stroke="#FFFFFF" stroke-width="3"/>
  </g>
  <g transform="rotate(20 32 52)">
    <rect x="15" y="25" width="34" height="22" rx="4.5" fill="#F3C56A" stroke="#FFFFFF" stroke-width="3"/>
  </g>
  <rect x="15" y="25" width="34" height="22" rx="4.5" fill="#F4A9C2" stroke="#FFFFFF" stroke-width="3"/>
  <path d="M32 42.5 C29.4 40.2 25.5 37.2 25.5 33.9 C25.5 31.6 27.3 30 29.4 30 C30.5 30 31.4 30.5 32 31.3 C32.6 30.5 33.5 30 34.6 30 C36.7 30 38.5 31.6 38.5 33.9 C38.5 37.2 34.6 40.2 32 42.5 Z" fill="#FFFFFF"/>
</svg>
