<svg xmlns="http://www.w3.org/2000/svg" viewBox="0 0 64 64">
  <rect width="64" height="64" rx="14" fill="#38b5ec"/>
  <g fill="#ff8fb8">
    <path d="M32 10 C38 19 38 30 32 36 C26 30 26 19 32 10Z" fill="#ff6fae"/>
    <path d="M32 10 C38 19 38 30 32 36 C26 30 26 19 32 10Z" transform="rotate(40 32 36)" opacity=".9"/>
    <path d="M32 10 C38 19 38 30 32 36 C26 30 26 19 32 10Z" transform="rotate(-40 32 36)" opacity=".9"/>
    <path d="M32 10 C38 19 38 30 32 36 C26 30 26 19 32 10Z" transform="rotate(76 32 36)" opacity=".7"/>
    <path d="M32 10 C38 19 38 30 32 36 C26 30 26 19 32 10Z" transform="rotate(-76 32 36)" opacity=".7"/>
  </g>
  <path d="M12 47 q10 7 20 0 t20 0" fill="none" stroke="#ffffff" stroke-width="2.5" stroke-linecap="round" opacity=".9"/>
  <path d="M18 54 q7 5 14 0 t14 0" fill="none" stroke="#ffffff" stroke-width="2" stroke-linecap="round" opacity=".6"/>
</svg>
